<svg fill="none" height="31" viewBox="0 0 201 31" width="201" xmlns="http://www.w3.org/2000/svg" xmlns:xlink="http://www.w3.org/1999/xlink"><clipPath id="a"><path d="m0 0h36v31h-36z"/></clipPath><g fill="#fff"><g clip-path="url(#a)"><path d="m21.9628 1.07715-14.45586 24.59005h-7.311628l3.320928 5.3324h6.89306l11.2465-19.6996 7.9256 13.6764-3.5163 6.0232h6.3349l3.6-6.1613z"/><path d="m6.69767 24.2861 14.26043-24.2861h-6.6139l-14.3442 24.2861z"/><path d="m21.6552 14.0908-3.2372 5.664 6.3907 10.6373 3.1535-5.4154z"/></g><path d="m193.574 24.2466c-2.569 0-4.418-1.1508-4.562-3.7401h1.747c.164 1.644 1.109 2.24 2.815 2.24 1.582 0 2.528-.5754 2.528-1.6029 0-.9453-.329-1.3563-2.692-1.7468-3.268-.5343-4.069-1.6029-4.069-3.288 0-1.8495 1.644-3.0414 3.925-3.0414 2.692 0 4.356 1.2741 4.377 3.5346h-1.726c-.062-1.6029-1.192-2.0345-2.651-2.0345-1.213 0-2.199.5343-2.199 1.5207 0 .9865.534 1.3358 2.774 1.7263 3.144.5548 4.007 1.459 4.007 3.2263 0 2.055-1.828 3.2058-4.274 3.2058z"/><path d="m182.96 24.2466c-3.021 0-4.994-2.3838-4.994-5.5896s1.973-5.5896 4.994-5.5896c3.02 0 4.993 2.3838 4.993 5.5896v.6165h-8.158c.185 2.0139 1.274 3.4113 3.165 3.4113 1.397 0 2.486-.7192 2.979-1.9317h1.788c-.678 2.1167-2.445 3.4935-4.767 3.4935zm-3.124-6.5349h6.247c-.267-1.829-1.336-3.0825-3.123-3.0825-1.788 0-2.857 1.2535-3.124 3.0825z"/><path d="m174.429 24.0002v-10.6861h1.726v10.6861zm0-12.7v-2.0961h1.726v2.0961z"/><path d="m168.219 10.0264h1.726v3.288h2.877v1.5207h-2.877v6.5349c0 .7809.329 1.1097 1.11 1.1097h1.767v1.5207h-2.096c-1.85 0-2.507-.7809-2.507-2.4249v-6.7404h-1.973v-1.5207h1.973z"/><path d="m163.12 24.0002v-10.6861h1.726v10.6861zm0-12.7v-2.0961h1.726v2.0961z"/><path d="m155.66 23.9998v-10.6861h1.644v1.7879c.864-1.5207 2.117-1.9112 3.412-1.9112h.801v1.6646h-.842c-1.809 0-3.288.7603-3.288 3.4319v5.7129z"/><path d="m148.631 24.2466c-3.206 0-5.179-2.3838-5.179-5.5896s1.973-5.5896 5.179-5.5896c3.205 0 5.178 2.3838 5.178 5.5896s-1.973 5.5896-5.178 5.5896zm0-1.5618c2.26 0 3.37-1.6851 3.37-4.0278s-1.11-4.0278-3.37-4.0278c-2.261 0-3.371 1.6851-3.371 4.0278s1.11 4.0278 3.371 4.0278z"/><path d="m139.915 24.0002v-10.6861h1.727v10.6861zm0-12.7v-2.0961h1.727v2.0961z"/><path d="m132.456 23.9998v-10.6861h1.644v1.7879c.863-1.5207 2.116-1.9112 3.411-1.9112h.801v1.6646h-.842c-1.808 0-3.288.7603-3.288 3.4319v5.7129z"/><path d="m119.64 24.0002v-14.7961h5.918c3.494 0 5.097 2.0756 5.097 4.5416s-1.603 4.5415-5.097 4.5415h-4.11v5.713zm1.808-7.357h4.11c2.261 0 3.226-1.2535 3.226-2.8975s-.965-2.8976-3.226-2.8976h-4.11z"/><path d="m105.318 24.0002v-14.7961h1.808v9.1037l4.829-4.9937h2.261l-4.131 4.1717 4.501 6.5144h-2.117l-3.617-5.2609-1.726 1.7674v3.4935z"/><path d="m101.276 17.1363c0-1.4796-.781-2.5071-2.4249-2.5071-.7398 0-3.0209.3493-3.0209 3.3908v5.98h-1.7262v-10.686h1.644v1.5412c.7193-1.0069 1.8495-1.7878 3.4319-1.7878 2.7121 0 3.8021 2.0139 3.8021 3.9045v7.0281h-1.706z"/><path d="m90.0741 24.0002v-10.6861h1.7262v10.6861zm0-12.7v-2.0961h1.7262v2.0961z"/><path d="m78.9019 24.0002v-14.7961h1.7262v5.5485c.7192-.9658 1.8084-1.6851 3.3496-1.6851 2.7126 0 3.8018 2.0139 3.8018 3.9045v7.0282h-1.7057v-6.8638c0-1.4796-.7809-2.5071-2.4249-2.5071-.7398 0-3.0208.3494-3.0208 3.3908v5.9801z"/><path d="m72.6502 10.0264h1.7262v3.288h2.877v1.5207h-2.877v6.5349c0 .7809.3288 1.1097 1.1097 1.1097h1.7673v1.5207h-2.0961c-1.8495 0-2.5071-.7809-2.5071-2.4249v-6.7404h-1.9728v-1.5207h1.9728z"/><path d="m64.7482 24.2466c-3.0209 0-4.9937-2.3838-4.9937-5.5896s1.9728-5.5896 4.9937-5.5896 4.9937 2.3838 4.9937 5.5896v.6165h-8.1584c.1849 2.0139 1.2741 3.4113 3.1647 3.4113 1.3974 0 2.4866-.7192 2.9798-1.9317h1.7878c-.6781 2.1167-2.4454 3.4935-4.7676 3.4935zm-3.1236-6.5349h6.2472c-.2671-1.829-1.3358-3.0825-3.1236-3.0825-1.7879 0-2.8565 1.2535-3.1236 3.0825z"/><path d="m47.1709 24.0002v-14.7961h6.1239c3.4935 0 5.0965 1.644 5.0965 4.2333 0 1.3769-.7193 2.6921-2.3222 3.4935 1.0686.3699 1.644 1.233 1.8289 2.4249l.6988 4.6444h-1.8701l-.5343-3.884c-.2466-1.7673-1.1097-2.4455-2.8154-2.4455h-4.3977v6.3295zm1.8084-7.9735h4.3155c2.2605 0 3.2264-1.0275 3.2264-2.5893s-.9659-2.5893-3.2264-2.5893h-4.3155z"/></g></svg>